<svg width="56" height="56" viewBox="0 0 56 56" fill="none" xmlns="http://www.w3.org/2000/svg">
<g clip-path="url(#clip0_1110_100)">
<path d="M20.4165 13.4167C20.4165 11.4055 21.2155 9.47663 22.6376 8.05448C24.0598 6.63233 25.9886 5.83337 27.9998 5.83337C30.0111 5.83337 31.9399 6.63233 33.3621 8.05448C34.7842 9.47663 35.5832 11.4055 35.5832 13.4167C35.5832 15.4279 34.7842 17.3568 33.3621 18.7789C31.9399 20.2011 30.0111 21 27.9998 21C25.9886 21 24.0598 20.2011 22.6376 18.7789C21.2155 17.3568 20.4165 15.4279 20.4165 13.4167ZM11.0832 10.5C9.38137 10.5 7.74926 11.1761 6.5459 12.3794C5.34254 13.5828 4.6665 15.2149 4.6665 16.9167C4.6665 18.6185 5.34254 20.2506 6.5459 21.454C7.74926 22.6573 9.38137 23.3334 11.0832 23.3334C12.785 23.3334 14.4171 22.6573 15.6204 21.454C16.8238 20.2506 17.4998 18.6185 17.4998 16.9167C17.4998 15.2149 16.8238 13.5828 15.6204 12.3794C14.4171 11.1761 12.785 10.5 11.0832 10.5ZM44.9165 10.5C43.2147 10.5 41.5826 11.1761 40.3792 12.3794C39.1759 13.5828 38.4998 15.2149 38.4998 16.9167C38.4998 18.6185 39.1759 20.2506 40.3792 21.454C41.5826 22.6573 43.2147 23.3334 44.9165 23.3334C46.6183 23.3334 48.2504 22.6573 49.4538 21.454C50.6571 20.2506 51.3332 18.6185 51.3332 16.9167C51.3332 15.2149 50.6571 13.5828 49.4538 12.3794C48.2504 11.1761 46.6183 10.5 44.9165 10.5ZM21.2915 24.5C20.2859 24.5 19.3215 24.8995 18.6104 25.6106C17.8993 26.3217 17.4998 27.2861 17.4998 28.2917V37.3334C17.4998 40.1181 18.6061 42.7889 20.5752 44.758C22.5443 46.7271 25.2151 47.8334 27.9998 47.8334C30.7846 47.8334 33.4553 46.7271 35.4245 44.758C37.3936 42.7889 38.4998 40.1181 38.4998 37.3334V28.2917C38.4998 27.2861 38.1004 26.3217 37.3893 25.6106C36.6782 24.8995 35.7138 24.5 34.7082 24.5H21.2915ZM15.3438 26.8217C15.2264 27.293 15.1673 27.783 15.1665 28.2917V37.3334C15.1647 39.248 15.5921 41.1386 16.4173 42.8662C17.2424 44.5939 18.4444 46.1146 19.9347 47.3165C19.7581 47.3749 19.5792 47.4278 19.398 47.4752C18.0661 47.8323 16.6769 47.9236 15.3097 47.7438C13.9425 47.564 12.6241 47.1167 11.4298 46.4273C10.2355 45.738 9.18865 44.8201 8.34909 43.7262C7.50952 42.6323 6.89366 41.3837 6.53667 40.0517L4.7995 33.572C4.67072 33.091 4.63794 32.5894 4.70304 32.0957C4.76814 31.6021 4.92983 31.126 5.1789 30.6949C5.42796 30.2637 5.75951 29.8858 6.15462 29.5828C6.54974 29.2797 7.00067 29.0575 7.48167 28.9287L15.3438 26.8217ZM36.0638 47.3165C37.5544 46.1147 38.7565 44.5941 39.5819 42.8664C40.4072 41.1388 40.8348 39.2481 40.8332 37.3334V28.2917C40.8316 27.783 40.7725 27.293 40.6558 26.8217L48.5168 28.9275C49.4881 29.1878 50.3161 29.8233 50.8189 30.694C51.3217 31.5648 51.458 32.5996 51.1978 33.5709L49.4618 40.0505C49.0928 41.428 48.4471 42.716 47.564 43.8357C46.6809 44.9555 45.579 45.8836 44.3254 46.5635C43.0718 47.2434 41.6929 47.6608 40.2727 47.7903C38.8525 47.9197 37.4197 47.7585 36.0638 47.3165Z" fill="#F78912"/>
</g>
<defs>
<clipPath id="clip0_1110_100">
<rect width="56" height="56" fill="white"/>
</clipPath>
</defs>
</svg>
