<svg width="56" height="56" viewBox="0 0 56 56" fill="none" xmlns="http://www.w3.org/2000/svg">
<path d="M47.3278 27.7844H37.525C36.9425 27.7838 36.3749 27.9682 35.904 28.311C35.4331 28.6538 35.0832 29.1373 34.9048 29.6918C34.4368 31.1545 33.5155 32.4304 32.2743 33.3347C31.0331 34.2391 29.5363 34.7251 28.0005 34.7223C26.4648 34.7251 24.968 34.2391 23.7267 33.3347C22.4855 32.4304 21.5643 31.1545 21.0963 29.6918C20.917 29.1376 20.5668 28.6545 20.0958 28.3118C19.6248 27.9691 19.0574 27.7845 18.4749 27.7844H8.67212C7.94159 27.7846 7.24102 28.0748 6.72446 28.5914C6.2079 29.108 5.91763 29.8085 5.91748 30.5391V46.2493C5.91793 46.9796 6.20832 47.6799 6.72486 48.1962C7.24139 48.7126 7.94178 49.0027 8.67212 49.0028H47.3278C48.0581 49.0027 48.7585 48.7126 49.2751 48.1962C49.7916 47.6799 50.082 46.9796 50.0824 46.2493V30.5391C50.0824 29.0164 48.8504 27.7844 47.3278 27.7844Z" fill="#1684EF"/>
<path d="M27.422 29.2527C27.5603 29.4465 27.7866 29.5624 28.0246 29.5624H28.0262C28.2659 29.5624 28.4888 29.4465 28.6288 29.2499L36.247 18.5354C36.3254 18.4243 36.3718 18.2938 36.3813 18.1582C36.3907 18.0226 36.3629 17.8869 36.3008 17.766C36.2385 17.6449 36.144 17.5435 36.0277 17.4727C35.9114 17.402 35.7778 17.3647 35.6417 17.365H32.0582V7.73975C32.0582 7.32815 31.7262 6.99719 31.3174 6.99719H24.6836C24.2737 6.99719 23.9427 7.32815 23.9427 7.73975V17.365H20.3565C20.2206 17.3652 20.0873 17.4028 19.9713 17.4737C19.8553 17.5445 19.7611 17.6459 19.6989 17.7668C19.6367 17.8876 19.6089 18.0233 19.6186 18.1588C19.6283 18.2944 19.6751 18.4247 19.7539 18.5354L27.422 29.2527Z" fill="#1684EF"/>
</svg>
