<svg width="32" height="32" viewBox="0 0 32 32" fill="none" xmlns="http://www.w3.org/2000/svg">
<path d="M25.3333 1.33313H6.66667C4.89921 1.33525 3.20474 2.03831 1.95496 3.28809C0.705176 4.53787 0.00211714 6.23234 0 7.9998L0 23.9998C0.00211714 25.7673 0.705176 27.4617 1.95496 28.7115C3.20474 29.9613 4.89921 30.6643 6.66667 30.6665H25.3333C27.1008 30.6643 28.7953 29.9613 30.045 28.7115C31.2948 27.4617 31.9979 25.7673 32 23.9998V7.9998C31.9979 6.23234 31.2948 4.53787 30.045 3.28809C28.7953 2.03831 27.1008 1.33525 25.3333 1.33313ZM6.66667 3.9998H25.3333C26.1317 4.00137 26.9114 4.24182 27.5719 4.6902C28.2325 5.13859 28.7438 5.77439 29.04 6.5158L18.8293 16.7278C18.0779 17.4762 17.0606 17.8964 16 17.8964C14.9394 17.8964 13.9221 17.4762 13.1707 16.7278L2.96 6.5158C3.2562 5.77439 3.76748 5.13859 4.42806 4.6902C5.08864 4.24182 5.86829 4.00137 6.66667 3.9998ZM25.3333 27.9998H6.66667C5.6058 27.9998 4.58839 27.5784 3.83824 26.8282C3.08809 26.0781 2.66667 25.0607 2.66667 23.9998V9.9998L11.2853 18.6131C12.5368 19.8615 14.2323 20.5625 16 20.5625C17.7677 20.5625 19.4632 19.8615 20.7147 18.6131L29.3333 9.9998V23.9998C29.3333 25.0607 28.9119 26.0781 28.1618 26.8282C27.4116 27.5784 26.3942 27.9998 25.3333 27.9998Z" fill="white"/>
</svg>
