<svg width="40" height="40" viewBox="0 0 40 40" fill="none" xmlns="http://www.w3.org/2000/svg">
<path d="M39.9868 20.0007C39.9868 30.1019 32.5014 38.4529 22.7772 39.808C21.8679 39.9341 20.9377 40 19.9934 40C18.9034 40 17.8331 39.9131 16.7908 39.745C7.2711 38.2118 0 29.9548 0 20.0007C0 8.95491 8.95227 0 19.9948 0C31.0374 0 39.9896 8.95491 39.9896 20.0007H39.9868Z" fill="#0F1625"/>
<path d="M22.7772 16.0597V20.4167H28.1654L27.3122 26.2857H22.7772V39.8078C21.868 39.9339 20.9377 39.9997 19.9935 39.9997C18.9035 39.9997 17.8331 39.9129 16.7908 39.7447V26.2857H11.8215V20.4167H16.7908V15.0858C16.7908 11.7785 19.4709 9.09619 22.7786 9.09619V9.099C22.7884 9.099 22.7968 9.09619 22.8066 9.09619H28.1668V14.172H24.6643C23.6234 14.172 22.7786 15.0171 22.7786 16.0583L22.7772 16.0597Z" fill="white"/>
</svg>
