<svg width="40" height="40" viewBox="0 0 40 40" fill="none" xmlns="http://www.w3.org/2000/svg">
<path d="M20.0396 0H19.9486C8.93128 0 0 8.93392 0 19.9545V20.0455C0 31.0661 8.93128 40 19.9486 40H20.0396C31.0569 40 39.9882 31.0661 39.9882 20.0455V19.9545C39.9882 8.93392 31.0569 0 20.0396 0Z" fill="white"/>
<path d="M24.8229 10H14.3924C11.5108 10 9.1665 12.3449 9.1665 15.2274V24.7726C9.1665 27.6551 11.5108 30 14.3924 30H24.8229C27.7045 30 30.0487 27.6551 30.0487 24.7726V15.2274C30.0487 12.3449 27.7045 10 24.8229 10ZM11.01 15.2274C11.01 13.3621 12.5276 11.8441 14.3924 11.8441H24.8229C26.6876 11.8441 28.2052 13.3621 28.2052 15.2274V24.7726C28.2052 26.6379 26.6876 28.1559 24.8229 28.1559H14.3924C12.5276 28.1559 11.01 26.6379 11.01 24.7726V15.2274Z" fill="black"/>
<path d="M19.6075 24.8615C22.2872 24.8615 24.4685 22.6807 24.4685 19.9991C24.4685 17.3175 22.2884 15.1367 19.6075 15.1367C16.9267 15.1367 14.7466 17.3175 14.7466 19.9991C14.7466 22.6807 16.9267 24.8615 19.6075 24.8615ZM19.6075 16.982C21.2715 16.982 22.625 18.3358 22.625 20.0003C22.625 21.6648 21.2715 23.0186 19.6075 23.0186C17.9435 23.0186 16.5901 21.6648 16.5901 20.0003C16.5901 18.3358 17.9435 16.982 19.6075 16.982Z" fill="black"/>
<path d="M24.9186 15.922C25.6402 15.922 26.2283 15.3348 26.2283 14.6119C26.2283 13.8889 25.6414 13.3018 24.9186 13.3018C24.1958 13.3018 23.6089 13.8889 23.6089 14.6119C23.6089 15.3348 24.1958 15.922 24.9186 15.922Z" fill="black"/>
</svg>
