<svg width="40" height="40" viewBox="0 0 40 40" fill="none" xmlns="http://www.w3.org/2000/svg">
<path d="M20.0396 0H19.9486C8.93129 0 0 8.93392 0 19.9545V20.0455C0 31.0661 8.93129 40 19.9486 40H20.0396C31.0569 40 39.9882 31.0661 39.9882 20.0455V19.9545C39.9882 8.93392 31.0569 0 20.0396 0Z" fill="#0F1625"/>
<path d="M24.823 10H14.3925C11.5109 10 9.16663 12.3449 9.16663 15.2274V24.7726C9.16663 27.6551 11.5109 30 14.3925 30H24.823C27.7046 30 30.0488 27.6551 30.0488 24.7726V15.2274C30.0488 12.3449 27.7046 10 24.823 10ZM11.0101 15.2274C11.0101 13.3621 12.5277 11.8441 14.3925 11.8441H24.823C26.6878 11.8441 28.2053 13.3621 28.2053 15.2274V24.7726C28.2053 26.6379 26.6878 28.1559 24.823 28.1559H14.3925C12.5277 28.1559 11.0101 26.6379 11.0101 24.7726V15.2274Z" fill="white"/>
<path d="M19.6079 24.8612C22.2876 24.8612 24.4688 22.6805 24.4688 19.9988C24.4688 17.3172 22.2887 15.1365 19.6079 15.1365C16.9271 15.1365 14.7469 17.3172 14.7469 19.9988C14.7469 22.6805 16.9271 24.8612 19.6079 24.8612ZM19.6079 16.9817C21.2719 16.9817 22.6253 18.3355 22.6253 20C22.6253 21.6645 21.2719 23.0183 19.6079 23.0183C17.9439 23.0183 16.5905 21.6645 16.5905 20C16.5905 18.3355 17.9439 16.9817 19.6079 16.9817Z" fill="white"/>
<path d="M24.9187 15.922C25.6403 15.922 26.2284 15.3348 26.2284 14.6119C26.2284 13.8889 25.6415 13.3018 24.9187 13.3018C24.196 13.3018 23.609 13.8889 23.609 14.6119C23.609 15.3348 24.196 15.922 24.9187 15.922Z" fill="white"/>
</svg>
