<svg width="20" height="20" viewBox="0 0 20 20" fill="none" xmlns="http://www.w3.org/2000/svg">
<path d="M14.1666 7.49984V5.83317C14.1666 4.7281 13.7276 3.66829 12.9462 2.88689C12.1648 2.10549 11.105 1.6665 9.99992 1.6665C8.89485 1.6665 7.83504 2.10549 7.05364 2.88689C6.27224 3.66829 5.83325 4.7281 5.83325 5.83317V7.49984C5.17021 7.49984 4.53433 7.76323 4.06549 8.23207C3.59664 8.70091 3.33325 9.3368 3.33325 9.99984V15.8332C3.33325 16.4962 3.59664 17.1321 4.06549 17.6009C4.53433 18.0698 5.17021 18.3332 5.83325 18.3332H14.1666C14.8296 18.3332 15.4655 18.0698 15.9344 17.6009C16.4032 17.1321 16.6666 16.4962 16.6666 15.8332V9.99984C16.6666 9.3368 16.4032 8.70091 15.9344 8.23207C15.4655 7.76323 14.8296 7.49984 14.1666 7.49984ZM7.49992 5.83317C7.49992 5.17013 7.76331 4.53424 8.23215 4.0654C8.70099 3.59656 9.33688 3.33317 9.99992 3.33317C10.663 3.33317 11.2988 3.59656 11.7677 4.0654C12.2365 4.53424 12.4999 5.17013 12.4999 5.83317V7.49984H7.49992V5.83317ZM14.9999 15.8332C14.9999 16.0542 14.9121 16.2661 14.7558 16.4224C14.5996 16.5787 14.3876 16.6665 14.1666 16.6665H5.83325C5.61224 16.6665 5.40028 16.5787 5.244 16.4224C5.08772 16.2661 4.99992 16.0542 4.99992 15.8332V9.99984C4.99992 9.77882 5.08772 9.56686 5.244 9.41058C5.40028 9.2543 5.61224 9.1665 5.83325 9.1665H14.1666C14.3876 9.1665 14.5996 9.2543 14.7558 9.41058C14.9121 9.56686 14.9999 9.77882 14.9999 9.99984V15.8332Z" fill="#99A1AF"/>
</svg>
