<svg width="49" height="49" viewBox="0 0 49 49" fill="none" xmlns="http://www.w3.org/2000/svg">
<mask id="mask0_1110_137" style="mask-type:luminance" maskUnits="userSpaceOnUse" x="0" y="0" width="49" height="49">
<path d="M24.3333 47.6667C37.2203 47.6667 47.6667 37.2203 47.6667 24.3333C47.6667 11.4463 37.2203 1 24.3333 1C11.4463 1 1 11.4463 1 24.3333C1 37.2203 11.4463 47.6667 24.3333 47.6667Z" fill="white" stroke="white" stroke-width="2" stroke-linejoin="round"/>
<path d="M24.3335 17.3334C25.2618 17.3334 26.152 16.9646 26.8084 16.3082C27.4647 15.6519 27.8335 14.7616 27.8335 13.8334C27.8335 12.9051 27.4647 12.0149 26.8084 11.3585C26.152 10.7021 25.2618 10.3334 24.3335 10.3334C23.4052 10.3334 22.515 10.7021 21.8586 11.3585C21.2022 12.0149 20.8335 12.9051 20.8335 13.8334C20.8335 14.7616 21.2022 15.6519 21.8586 16.3082C22.515 16.9646 23.4052 17.3334 24.3335 17.3334ZM24.3335 38.3334C25.2618 38.3334 26.152 37.9646 26.8084 37.3082C27.4647 36.6519 27.8335 35.7616 27.8335 34.8334C27.8335 33.9051 27.4647 33.0149 26.8084 32.3585C26.152 31.7021 25.2618 31.3334 24.3335 31.3334C23.4052 31.3334 22.515 31.7021 21.8586 32.3585C21.2022 33.0149 20.8335 33.9051 20.8335 34.8334C20.8335 35.7616 21.2022 36.6519 21.8586 37.3082C22.515 37.9646 23.4052 38.3334 24.3335 38.3334ZM13.8335 27.8334C14.7618 27.8334 15.652 27.4646 16.3084 26.8082C16.9647 26.1519 17.3335 25.2616 17.3335 24.3334C17.3335 23.4051 16.9647 22.5149 16.3084 21.8585C15.652 21.2021 14.7618 20.8334 13.8335 20.8334C12.9052 20.8334 12.015 21.2021 11.3586 21.8585C10.7022 22.5149 10.3335 23.4051 10.3335 24.3334C10.3335 25.2616 10.7022 26.1519 11.3586 26.8082C12.015 27.4646 12.9052 27.8334 13.8335 27.8334ZM34.8335 27.8334C35.7618 27.8334 36.652 27.4646 37.3084 26.8082C37.9647 26.1519 38.3335 25.2616 38.3335 24.3334C38.3335 23.4051 37.9647 22.5149 37.3084 21.8585C36.652 21.2021 35.7618 20.8334 34.8335 20.8334C33.9052 20.8334 33.015 21.2021 32.3586 21.8585C31.7022 22.5149 31.3335 23.4051 31.3335 24.3334C31.3335 25.2616 31.7022 26.1519 32.3586 26.8082C33.015 27.4646 33.9052 27.8334 34.8335 27.8334Z" fill="black" stroke="black" stroke-width="2" stroke-linejoin="round"/>
<path d="M24.3335 47.6666H47.6668" stroke="white" stroke-width="2" stroke-linecap="round"/>
</mask>
<g mask="url(#mask0_1110_137)">
<path d="M-3.6665 -3.66663H52.3335V52.3334H-3.6665V-3.66663Z" fill="#F78912"/>
</g>
</svg>
