<svg width="47" height="24" viewBox="0 0 47 24" fill="none" xmlns="http://www.w3.org/2000/svg">
<g opacity="0.8" clip-path="url(#clip0_136_13)">
<g clip-path="url(#clip1_136_13)">
<path d="M30.5015 5.27654C30.3787 4.88588 30.1335 4.54509 29.8021 4.30456C29.4707 4.06404 29.0707 3.93655 28.6613 3.94094H26.0399L25.2437 1.45934C25.1185 1.06872 24.8724 0.727952 24.541 0.486183C24.2097 0.244414 23.8101 0.114136 23.3999 0.114136C22.9897 0.114136 22.5901 0.244414 22.2587 0.486183C21.9273 0.727952 21.6813 1.06872 21.5561 1.45934L20.7599 3.94094H18.1385C17.7303 3.94153 17.3328 4.07107 17.0026 4.31109C16.6725 4.5511 16.4267 4.8893 16.3003 5.27738C16.1738 5.66545 16.1733 6.08356 16.2987 6.47198C16.424 6.86039 16.669 7.19925 16.9985 7.44014L19.1321 9.00014L18.3209 11.5123C18.1898 11.902 18.1881 12.3235 18.3161 12.7142C18.4441 13.1049 18.695 13.4437 19.0313 13.6801C19.3618 13.9242 19.7623 14.055 20.1732 14.0529C20.584 14.0509 20.9832 13.9161 21.3113 13.6687L23.3999 12.1315L25.4891 13.6669C25.819 13.9096 26.2173 14.0414 26.6269 14.0434C27.0364 14.0454 27.4361 13.9175 27.7683 13.6781C28.1006 13.4386 28.3484 13.1 28.476 12.7108C28.6037 12.3217 28.6047 11.9021 28.4789 11.5123L27.6677 9.00014L29.8037 7.44014C30.1369 7.20227 30.3847 6.86342 30.5104 6.47375C30.6361 6.08408 30.6329 5.6643 30.5015 5.27654ZM29.0957 6.47114L26.6093 8.28854C26.5071 8.36305 26.4311 8.4679 26.3921 8.58814C26.3531 8.70839 26.3531 8.83788 26.3921 8.95815L27.3371 11.8801C27.3849 12.0283 27.3845 12.1879 27.3359 12.3359C27.2873 12.4838 27.1931 12.6126 27.0667 12.7036C26.9404 12.7946 26.7884 12.8432 26.6327 12.8424C26.4769 12.8416 26.3255 12.7914 26.2001 12.6991L23.7551 10.8991C23.6521 10.8235 23.5276 10.7827 23.3999 10.7827C23.2721 10.7827 23.1476 10.8235 23.0447 10.8991L20.5997 12.6991C20.4743 12.7927 20.3224 12.8439 20.166 12.8453C20.0096 12.8467 19.8568 12.7983 19.7298 12.707C19.6028 12.6158 19.5081 12.4864 19.4595 12.3378C19.411 12.1891 19.411 12.0288 19.4597 11.8801L20.4077 8.95815C20.4466 8.83788 20.4466 8.70839 20.4076 8.58814C20.3686 8.4679 20.2926 8.36305 20.1905 8.28854L17.7041 6.47114C17.5788 6.37946 17.4858 6.25055 17.4382 6.10283C17.3906 5.95511 17.391 5.79613 17.4391 5.6486C17.4873 5.50108 17.5809 5.37255 17.7065 5.28138C17.8321 5.1902 17.9833 5.14105 18.1385 5.14094H21.1985C21.3255 5.14094 21.4492 5.10062 21.5519 5.02579C21.6545 4.95096 21.7308 4.84548 21.7697 4.72454L22.6997 1.82594C22.7474 1.67761 22.841 1.54826 22.9669 1.45649C23.0928 1.36473 23.2446 1.31529 23.4005 1.31529C23.5563 1.31529 23.7081 1.36473 23.834 1.45649C23.96 1.54826 24.0535 1.67761 24.1013 1.82594L25.0313 4.72454C25.0701 4.84548 25.1464 4.95096 25.249 5.02579C25.3517 5.10062 25.4754 5.14094 25.6025 5.14094H28.6625C28.8177 5.14105 28.9688 5.1902 29.0944 5.28138C29.22 5.37255 29.3136 5.50108 29.3618 5.6486C29.4099 5.79613 29.4103 5.95511 29.3627 6.10283C29.3151 6.25055 29.2221 6.37946 29.0969 6.47114H29.0957Z" fill="white"/>
</g>
<g clip-path="url(#clip2_136_13)">
<path d="M14.3014 14.8765C14.1787 14.4859 13.9335 14.1451 13.6021 13.9045C13.2707 13.664 12.8707 13.5365 12.4612 13.5409H9.83985L9.04365 11.0593C8.91844 10.6687 8.67241 10.3279 8.34103 10.0862C8.00965 9.84439 7.61005 9.71411 7.19985 9.71411C6.78965 9.71411 6.39005 9.84439 6.05867 10.0862C5.72729 10.3279 5.48125 10.6687 5.35605 11.0593L4.55985 13.5409H1.93845C1.53029 13.5415 1.13276 13.671 0.802635 13.9111C0.472508 14.1511 0.226672 14.4893 0.10024 14.8774C-0.0261916 15.2654 -0.0267512 15.6835 0.0986411 16.072C0.224033 16.4604 0.468964 16.7992 0.798447 17.0401L2.93205 18.6001L2.12085 21.1123C1.98975 21.502 1.98809 21.9235 2.11611 22.3142C2.24413 22.7048 2.49498 23.0436 2.83125 23.2801C3.16176 23.5242 3.56228 23.6549 3.97314 23.6529C4.384 23.6508 4.78319 23.5161 5.11125 23.2687L7.19985 21.7315L9.28905 23.2669C9.61896 23.5096 10.0173 23.6414 10.4269 23.6434C10.8364 23.6454 11.236 23.5175 11.5683 23.278C11.9006 23.0386 12.1483 22.6999 12.276 22.3108C12.4037 21.9217 12.4047 21.5021 12.2788 21.1123L11.4676 18.6001L13.6036 17.0401C13.9369 16.8022 14.1847 16.4634 14.3104 16.0737C14.4361 15.6841 14.4329 15.2643 14.3014 14.8765ZM12.8956 16.0711L10.4092 17.8885C10.3071 17.963 10.2311 18.0679 10.1921 18.1881C10.1531 18.3084 10.1531 18.4379 10.192 18.5581L11.137 21.4801C11.1849 21.6283 11.1845 21.7879 11.1359 21.9358C11.0873 22.0838 10.9931 22.2125 10.8667 22.3035C10.7403 22.3946 10.5884 22.4432 10.4327 22.4424C10.2769 22.4416 10.1255 22.3914 10 22.2991L7.55505 20.4991C7.45207 20.4235 7.32763 20.3827 7.19985 20.3827C7.07207 20.3827 6.94763 20.4235 6.84465 20.4991L4.39965 22.2991C4.2743 22.3927 4.12241 22.4439 3.96601 22.4453C3.8096 22.4467 3.65681 22.3983 3.52978 22.307C3.40276 22.2158 3.3081 22.0864 3.25953 21.9377C3.21095 21.7891 3.211 21.6288 3.25965 21.4801L4.20765 18.5581C4.2466 18.4379 4.24657 18.3084 4.20756 18.1881C4.16856 18.0679 4.09257 17.963 3.99045 17.8885L1.50405 16.0711C1.37883 15.9794 1.28579 15.8505 1.23821 15.7028C1.19064 15.5551 1.19096 15.3961 1.23914 15.2486C1.28732 15.1011 1.38088 14.9725 1.50647 14.8814C1.63206 14.7902 1.78325 14.741 1.93845 14.7409H4.99845C5.12548 14.7409 5.24923 14.7006 5.35188 14.6258C5.45453 14.5509 5.53078 14.4455 5.56965 14.3245L6.49965 11.4259C6.54739 11.2776 6.64095 11.1482 6.76689 11.0565C6.89282 10.9647 7.04463 10.9153 7.20045 10.9153C7.35627 10.9153 7.50807 10.9647 7.63401 11.0565C7.75994 11.1482 7.85351 11.2776 7.90125 11.4259L8.83125 14.3245C8.87012 14.4455 8.94637 14.5509 9.04902 14.6258C9.15167 14.7006 9.27542 14.7409 9.40245 14.7409H12.4624C12.6176 14.741 12.7688 14.7902 12.8944 14.8814C13.02 14.9725 13.1136 15.1011 13.1618 15.2486C13.2099 15.3961 13.2103 15.5551 13.1627 15.7028C13.1151 15.8505 13.0221 15.9794 12.8968 16.0711H12.8956Z" fill="white"/>
</g>
<g clip-path="url(#clip3_136_13)">
<path d="M46.7015 14.8765C46.5787 14.4859 46.3335 14.1451 46.0021 13.9045C45.6707 13.664 45.2707 13.5365 44.8613 13.5409H42.2399L41.4437 11.0593C41.3185 10.6687 41.0724 10.3279 40.7411 10.0862C40.4097 9.84439 40.0101 9.71411 39.5999 9.71411C39.1897 9.71411 38.7901 9.84439 38.4587 10.0862C38.1273 10.3279 37.8813 10.6687 37.7561 11.0593L36.9599 13.5409H34.3385C33.9303 13.5415 33.5328 13.671 33.2027 13.9111C32.8725 14.1511 32.6267 14.4893 32.5003 14.8774C32.3738 15.2654 32.3733 15.6835 32.4987 16.072C32.6241 16.4604 32.869 16.7992 33.1985 17.0401L35.3321 18.6001L34.5209 21.1123C34.3898 21.502 34.3881 21.9235 34.5161 22.3142C34.6442 22.7048 34.895 23.0436 35.2313 23.2801C35.5618 23.5242 35.9623 23.6549 36.3732 23.6529C36.784 23.6508 37.1832 23.5161 37.5113 23.2687L39.5999 21.7315L41.6891 23.2669C42.019 23.5096 42.4173 23.6414 42.8269 23.6434C43.2364 23.6454 43.6361 23.5175 43.9683 23.278C44.3006 23.0386 44.5484 22.6999 44.676 22.3108C44.8037 21.9217 44.8047 21.5021 44.6789 21.1123L43.8677 18.6001L46.0037 17.0401C46.3369 16.8022 46.5847 16.4634 46.7104 16.0737C46.8361 15.6841 46.8329 15.2643 46.7015 14.8765ZM45.2957 16.0711L42.8093 17.8885C42.7071 17.963 42.6312 18.0679 42.5922 18.1881C42.5532 18.3084 42.5531 18.4379 42.5921 18.5581L43.5371 21.4801C43.5849 21.6283 43.5845 21.7879 43.5359 21.9358C43.4873 22.0838 43.3931 22.2125 43.2667 22.3035C43.1404 22.3946 42.9884 22.4432 42.8327 22.4424C42.677 22.4416 42.5255 22.3914 42.4001 22.2991L39.9551 20.4991C39.8521 20.4235 39.7276 20.3827 39.5999 20.3827C39.4721 20.3827 39.3477 20.4235 39.2447 20.4991L36.7997 22.2991C36.6743 22.3927 36.5224 22.4439 36.366 22.4453C36.2096 22.4467 36.0568 22.3983 35.9298 22.307C35.8028 22.2158 35.7081 22.0864 35.6595 21.9377C35.611 21.7891 35.611 21.6288 35.6597 21.4801L36.6077 18.5581C36.6466 18.4379 36.6466 18.3084 36.6076 18.1881C36.5686 18.0679 36.4926 17.963 36.3905 17.8885L33.9041 16.0711C33.7789 15.9794 33.6858 15.8505 33.6382 15.7028C33.5907 15.5551 33.591 15.3961 33.6392 15.2486C33.6873 15.1011 33.7809 14.9725 33.9065 14.8814C34.0321 14.7902 34.1833 14.741 34.3385 14.7409H37.3985C37.5255 14.7409 37.6493 14.7006 37.7519 14.6258C37.8545 14.5509 37.9308 14.4455 37.9697 14.3245L38.8997 11.4259C38.9474 11.2776 39.041 11.1482 39.1669 11.0565C39.2928 10.9647 39.4447 10.9153 39.6005 10.9153C39.7563 10.9153 39.9081 10.9647 40.034 11.0565C40.16 11.1482 40.2535 11.2776 40.3013 11.4259L41.2313 14.3245C41.2701 14.4455 41.3464 14.5509 41.449 14.6258C41.5517 14.7006 41.6754 14.7409 41.8025 14.7409H44.8625C45.0177 14.741 45.1689 14.7902 45.2944 14.8814C45.42 14.9725 45.5136 15.1011 45.5618 15.2486C45.61 15.3961 45.6103 15.5551 45.5627 15.7028C45.5151 15.8505 45.4221 15.9794 45.2969 16.0711H45.2957Z" fill="white"/>
</g>
</g>
<defs>
<clipPath id="clip0_136_13">
<rect width="46.8" height="24" fill="white"/>
</clipPath>
<clipPath id="clip1_136_13">
<rect width="14.4" height="14.4" fill="white" transform="translate(16.2)"/>
</clipPath>
<clipPath id="clip2_136_13">
<rect width="14.4" height="14.4" fill="white" transform="translate(0 9.59998)"/>
</clipPath>
<clipPath id="clip3_136_13">
<rect width="14.4" height="14.4" fill="white" transform="translate(32.4 9.59998)"/>
</clipPath>
</defs>
</svg>
