<svg width="42" height="41" viewBox="0 0 42 41" fill="none" xmlns="http://www.w3.org/2000/svg">
<path fill-rule="evenodd" clip-rule="evenodd" d="M0 4.66663C0 2.08933 2.08933 0 4.66666 0H37.3334C39.9106 0 42 2.08933 42 4.66663V28C42 30.5773 39.9106 32.6666 37.3334 32.6666H28V37.3334H33.25C34.2166 37.3334 35 38.1168 35 39.0834C35 40.0498 34.2166 40.8334 33.25 40.8334H8.75C7.78344 40.8334 7 40.0498 7 39.0834C7 38.1168 7.78344 37.3334 8.75 37.3334H14V32.6666H4.66666C2.08933 32.6666 0 30.5773 0 28V4.66663ZM37.3334 3.5C37.9777 3.5 38.5 4.02233 38.5 4.66663V28C38.5 28.6443 37.9777 29.1666 37.3334 29.1666H4.66666C4.02234 29.1666 3.5 28.6443 3.5 28V4.66663C3.5 4.02233 4.02234 3.5 4.66666 3.5H37.3334Z" fill="#F22F7A"/>
</svg>
