<svg width="40" height="40" viewBox="0 0 40 40" fill="none" xmlns="http://www.w3.org/2000/svg">
<path d="M39.9868 20.0007C39.9868 30.1019 32.5014 38.4529 22.7772 39.808C21.8679 39.9341 20.9377 40 19.9934 40C18.9034 40 17.8331 39.9131 16.7908 39.745C7.27109 38.2118 0 29.9548 0 20.0007C0 8.95491 8.95227 0 19.9948 0C31.0373 0 39.9896 8.95491 39.9896 20.0007H39.9868Z" fill="white"/>
<path d="M9.21789 10L17.4662 21.031L9.1665 30H11.035L18.302 22.1479L24.1731 30H30.5303L21.8184 18.3485L29.5441 10H27.6756L20.9838 17.2316L15.5764 10H9.21913H9.21789ZM11.9648 11.3764H14.8847L27.7809 28.6236H24.861L11.9648 11.3764Z" fill="black"/>
</svg>
