<svg width="191" height="40" viewBox="0 0 191 40" fill="none" xmlns="http://www.w3.org/2000/svg">
<mask id="mask0_43_194" style="mask-type:luminance" maskUnits="userSpaceOnUse" x="0" y="0" width="191" height="40">
<path d="M80.7441 1.0952H75.5316C73.591 1.0952 71.7299 1.82899 70.3577 3.13515C68.9854 4.4413 68.2145 6.21283 68.2145 8.06002V21.3485C68.2145 24.3613 67.3724 26.5952 65.6881 28.0503C65.0836 28.6185 64.3662 29.0663 63.5777 29.3675C62.7892 29.6686 61.9455 29.8171 61.096 29.8041C56.8103 29.8041 54.6674 27.5456 54.6674 23.0284V8.05612C54.6664 6.20961 53.895 4.43908 52.5229 3.13377C51.1508 1.82845 49.2902 1.0952 47.3503 1.0952H42.1358C42.0726 1.0952 42.0101 1.10704 41.9517 1.13006C41.8933 1.15307 41.8403 1.1868 41.7956 1.22933C41.7509 1.27185 41.7155 1.32234 41.6913 1.3779C41.6671 1.43346 41.6547 1.49301 41.6547 1.55315V23.8273C41.6547 29.1201 42.6784 33.054 44.7257 35.629C47.0719 38.543 50.9495 40 56.3585 40C58.769 39.9841 61.1371 39.3953 63.2477 38.287C65.4916 37.1477 67.2264 35.6303 68.452 33.7348H68.6056V38.4488C68.6071 38.5676 68.6571 38.6811 68.745 38.7655C68.8328 38.8498 68.9517 38.8984 69.0764 38.9009H73.9081C75.8484 38.9009 77.7092 38.1674 79.0814 36.8616C80.4535 35.5559 81.2247 33.7849 81.2252 31.938V1.54926C81.2241 1.42847 81.173 1.31299 81.0829 1.22795C80.9928 1.14291 80.871 1.09519 80.7441 1.0952ZM100.892 1.0952H95.6772C93.737 1.09571 91.8764 1.82973 90.5046 3.13583C89.1328 4.44194 88.3622 6.21317 88.3622 8.06002V38.4449C88.3624 38.5057 88.3754 38.5658 88.4003 38.6218C88.4253 38.6778 88.4617 38.7285 88.5074 38.7709C88.5532 38.8134 88.6073 38.8467 88.6667 38.8691C88.7262 38.8914 88.7897 38.9022 88.8535 38.9009H94.068C96.0081 38.9009 97.8687 38.1673 99.2406 36.8615C100.612 35.5557 101.383 33.7847 101.383 31.938V1.54926C101.383 1.48862 101.369 1.42868 101.344 1.37293C101.319 1.31717 101.283 1.26671 101.237 1.22447C101.191 1.18223 101.137 1.14905 101.078 1.12686C101.019 1.10467 100.955 1.0939 100.892 1.0952ZM37.3267 29.4319H17.6888C17.5942 29.4314 17.5018 29.4044 17.4232 29.3541C17.3447 29.3039 17.2834 29.2327 17.2472 29.1495C17.2109 29.0663 17.2012 28.9748 17.2193 28.8864C17.2374 28.798 17.2825 28.7166 17.349 28.6524L34.2229 12.5304C35.588 11.2248 36.3543 9.45772 36.3542 7.61571V1.54926C36.3531 1.42881 36.3022 1.31362 36.2126 1.22863C36.1229 1.14364 36.0017 1.09571 35.8751 1.0952H2.08826C1.96066 1.0952 1.83829 1.14345 1.74806 1.22933C1.65783 1.31521 1.60714 1.43169 1.60714 1.55315V3.59934C1.60769 5.44619 2.37883 7.21722 3.751 8.52295C5.12316 9.82869 6.98399 10.5622 8.92425 10.5622H18.6551C18.7496 10.5631 18.8417 10.5904 18.92 10.6408C18.9982 10.6912 19.0591 10.7624 19.0952 10.8455C19.1312 10.9286 19.1407 11.02 19.1225 11.1083C19.1044 11.1965 19.0593 11.2777 18.993 11.3417L2.16197 27.2435C1.47687 27.8907 0.933122 28.6606 0.562067 29.5088C0.191012 30.357 -1.36349e-05 31.2667 7.29942e-10 32.1855V38.4449C0.000541477 38.566 0.0514699 38.682 0.141639 38.7675C0.231807 38.8529 0.353872 38.9009 0.481119 38.9009H30.4927C32.4328 38.9009 34.2934 38.1673 35.6653 36.8615C37.0371 35.5557 37.8078 33.7847 37.8078 31.938V29.8899C37.8078 29.7684 37.7571 29.652 37.6669 29.5661C37.5766 29.4802 37.4543 29.4319 37.3267 29.4319ZM156.652 0.00584749C151.843 0.00584749 147.865 1.85521 144.721 5.55393C144.671 5.61244 144.606 5.65813 144.533 5.68689C144.459 5.71564 144.38 5.72655 144.301 5.71862C144.222 5.71068 144.146 5.68417 144.081 5.64146C144.016 5.59876 143.962 5.54121 143.926 5.47403C141.938 1.82987 138.195 0.00714666 132.697 0.00584749C127.697 0.00584749 123.896 2.09425 121.293 6.27107H121.14V1.54926C121.139 1.42847 121.087 1.31299 120.997 1.22795C120.907 1.14291 120.785 1.09519 120.659 1.0952H115.827C113.887 1.09468 112.026 1.82771 110.653 3.13308C109.281 4.43845 108.509 6.20928 108.508 8.05612V38.4449C108.508 38.505 108.52 38.5646 108.544 38.6201C108.569 38.6757 108.604 38.7262 108.649 38.7687C108.693 38.8112 108.746 38.845 108.805 38.868C108.863 38.891 108.926 38.9029 108.989 38.9029H114.203C116.144 38.9029 118.004 38.1693 119.377 36.8636C120.749 35.5579 121.52 33.7868 121.521 31.94V20.4716C121.521 16.6832 122.03 14.0238 123.05 12.4934C124.069 10.963 125.779 10.1984 128.178 10.1997C131.442 10.1997 133.074 12.6032 133.076 17.4101V38.4449C133.076 38.505 133.088 38.5646 133.112 38.6201C133.136 38.6757 133.172 38.7262 133.216 38.7687C133.261 38.8112 133.314 38.845 133.373 38.868C133.431 38.891 133.493 38.9029 133.557 38.9029H138.771C140.711 38.9029 142.572 38.1693 143.944 36.8635C145.316 35.5577 146.086 33.7866 146.086 31.94V20.3975C146.086 16.8547 146.419 14.3779 147.083 12.967C147.949 11.1209 149.655 10.1984 152.202 10.1997C155.829 10.1997 157.643 12.3616 157.643 16.6852V38.4449C157.643 38.505 157.656 38.5646 157.68 38.6201C157.704 38.6757 157.74 38.7262 157.784 38.7687C157.829 38.8112 157.882 38.845 157.94 38.868C157.999 38.891 158.061 38.9029 158.124 38.9029H163.339C165.279 38.9029 167.14 38.1693 168.512 36.8636C169.884 35.5579 170.656 33.7868 170.656 31.94V16.3188C170.656 11.56 169.891 7.94115 168.361 5.46234C166.169 1.82208 162.266 0.00129917 156.652 0V0.00584749ZM190.329 1.0952H185.114C183.174 1.0952 181.312 1.82899 179.94 3.13515C178.568 4.4413 177.797 6.21283 177.797 8.06002V38.4449C177.797 38.505 177.81 38.5646 177.834 38.6201C177.858 38.6757 177.893 38.7262 177.938 38.7687C177.983 38.8112 178.036 38.845 178.094 38.868C178.153 38.891 178.215 38.9029 178.278 38.9029H183.495C184.455 38.9029 185.407 38.7228 186.294 38.3728C187.182 38.0229 187.988 37.51 188.667 36.8635C189.347 36.2169 189.885 35.4493 190.253 34.6046C190.621 33.7598 190.81 32.8544 190.81 31.94V1.54926C190.809 1.42847 190.758 1.31299 190.668 1.22795C190.577 1.14291 190.456 1.09519 190.329 1.0952Z" fill="white"/>
</mask>
<g mask="url(#mask0_43_194)">
<path d="M190.81 -6.10913H0V46.2635H190.81V-6.10913Z" fill="url(#paint0_linear_43_194)"/>
</g>
<defs>
<linearGradient id="paint0_linear_43_194" x1="0" y1="20.0781" x2="190.81" y2="20.0781" gradientUnits="userSpaceOnUse">
<stop stop-color="#1683EE"/>
<stop offset="0.5" stop-color="#F12F7A"/>
<stop offset="1" stop-color="#F68812"/>
</linearGradient>
</defs>
</svg>
