<svg width="167" height="33" viewBox="0 0 167 33" fill="none" xmlns="http://www.w3.org/2000/svg">
<mask id="mask0_154_70" style="mask-type:luminance" maskUnits="userSpaceOnUse" x="0" y="0" width="167" height="33">
<path d="M70.6511 0.901429H66.0902C64.3921 0.901429 62.7636 1.50539 61.563 2.58046C60.3623 3.65552 59.6877 5.11363 59.6877 6.634V17.5714C59.6877 20.0512 58.9509 21.8898 57.4771 23.0875C56.9482 23.5552 56.3204 23.9238 55.6305 24.1716C54.9405 24.4195 54.2023 24.5417 53.459 24.531C49.709 24.531 47.834 22.672 47.834 18.9541V6.63079C47.8331 5.11097 47.1581 3.6537 45.9575 2.57932C44.7569 1.50495 43.129 0.901428 41.4315 0.901429H36.8688C36.8136 0.901429 36.7588 0.911179 36.7077 0.930121C36.6567 0.949064 36.6103 0.976828 36.5712 1.01183C36.5321 1.04683 36.5011 1.08838 36.4799 1.13411C36.4588 1.17985 36.4479 1.22886 36.4479 1.27836V19.6117C36.4479 23.968 37.3436 27.2059 39.135 29.3253C41.1879 31.7237 44.5808 32.923 49.3137 32.923C51.4229 32.9099 53.4949 32.4253 55.3418 31.5131C57.3052 30.5753 58.8231 29.3264 59.8955 27.7662H60.0299V31.6462C60.0312 31.744 60.075 31.8374 60.1519 31.9069C60.2287 31.9763 60.3327 32.0163 60.4419 32.0183H64.6696C66.3673 32.0183 67.9956 31.4146 69.1962 30.3399C70.3968 29.2652 71.0716 27.8075 71.0721 26.2874V1.27515C71.0711 1.17574 71.0264 1.08069 70.9475 1.01069C70.8687 0.940697 70.7621 0.901425 70.6511 0.901429ZM88.2803 0.901429H83.7176C82.0199 0.901854 80.3918 1.50601 79.1915 2.58103C77.9912 3.65605 77.3169 5.1139 77.3169 6.634V31.643C77.3171 31.6931 77.3285 31.7426 77.3503 31.7886C77.3721 31.8347 77.404 31.8764 77.444 31.9114C77.484 31.9463 77.5314 31.9738 77.5834 31.9921C77.6354 32.0105 77.691 32.0194 77.7468 32.0183H82.3095C84.0071 32.0183 85.6351 31.4145 86.8355 30.3398C88.0359 29.265 88.7102 27.8073 88.7102 26.2874V1.27515C88.7098 1.22524 88.6982 1.17591 88.6763 1.13002C88.6544 1.08413 88.6225 1.0426 88.5825 1.00783C88.5425 0.973062 88.4952 0.945753 88.4433 0.927488C88.3914 0.909223 88.336 0.900365 88.2803 0.901429ZM32.6608 24.2247H15.4777C15.3949 24.2243 15.3141 24.202 15.2453 24.1606C15.1766 24.1193 15.123 24.0607 15.0913 23.9922C15.0595 23.9238 15.051 23.8484 15.0669 23.7756C15.0827 23.7029 15.1222 23.6359 15.1803 23.5831L29.9451 10.3135C31.1395 9.23885 31.81 7.78441 31.8099 6.26829V1.27515C31.809 1.17602 31.7645 1.08121 31.686 1.01126C31.6075 0.941305 31.5015 0.901847 31.3907 0.901429H1.82723C1.71558 0.901429 1.6085 0.941141 1.52955 1.01183C1.4506 1.08252 1.40625 1.17839 1.40625 1.27836V2.96252C1.40673 4.48262 2.08148 5.94031 3.28212 7.01503C4.48277 8.08974 6.11099 8.69349 7.80872 8.69349H16.3233C16.4059 8.69422 16.4865 8.71672 16.555 8.75819C16.6234 8.79965 16.6767 8.85825 16.7083 8.92667C16.7398 8.99508 16.7481 9.0703 16.7322 9.14292C16.7163 9.21555 16.6769 9.28238 16.6188 9.33508L1.89172 22.4234C1.29226 22.9562 0.816482 23.5898 0.491809 24.288C0.167136 24.9861 -1.19305e-05 25.7348 6.38699e-10 26.4911V31.643C0.000473792 31.7427 0.0450361 31.8382 0.123934 31.9085C0.202831 31.9789 0.309638 32.0183 0.420979 32.0183H26.6811C28.3787 32.0183 30.0067 31.4145 31.2071 30.3398C32.4075 29.265 33.0818 27.8073 33.0818 26.2874V24.6016C33.0818 24.5016 33.0375 24.4058 32.9585 24.3351C32.8796 24.2644 32.7725 24.2247 32.6608 24.2247ZM137.071 0.00481292C132.862 0.00481292 129.382 1.52697 126.631 4.5713C126.587 4.61945 126.53 4.65707 126.466 4.68073C126.402 4.7044 126.332 4.71338 126.263 4.70685C126.194 4.70032 126.128 4.67849 126.071 4.64334C126.014 4.60819 125.967 4.56083 125.936 4.50554C124.195 1.50612 120.92 0.00588223 116.11 0.00481292C111.735 0.00481292 108.409 1.72373 106.132 5.16156H105.997V1.27515C105.996 1.17574 105.952 1.08069 105.873 1.01069C105.794 0.940697 105.687 0.901425 105.576 0.901429H101.349C99.6508 0.901003 98.0224 1.50434 96.8214 2.57876C95.6205 3.65318 94.9452 5.1107 94.9443 6.63079V31.643C94.9443 31.6925 94.9552 31.7415 94.9763 31.7873C94.9975 31.833 95.0285 31.8745 95.0676 31.9095C95.1067 31.9445 95.1531 31.9723 95.2042 31.9913C95.2552 32.0102 95.31 32.0199 95.3653 32.0199H99.928C101.626 32.0199 103.254 31.4162 104.455 30.3415C105.655 29.2668 106.33 27.8091 106.33 26.289V16.8496C106.33 13.7315 106.777 11.5427 107.669 10.283C108.561 9.02337 110.057 8.39408 112.156 8.39515C115.012 8.39515 116.44 10.3734 116.441 14.3298V31.643C116.441 31.6925 116.452 31.7415 116.473 31.7873C116.494 31.833 116.525 31.8745 116.564 31.9095C116.604 31.9445 116.65 31.9723 116.701 31.9913C116.752 32.0102 116.807 32.0199 116.862 32.0199H121.425C123.122 32.0199 124.75 31.4161 125.951 30.3414C127.151 29.2666 127.825 27.8089 127.825 26.289V16.7887C127.825 13.8727 128.116 11.8341 128.698 10.6728C129.455 9.15329 130.948 8.39408 133.176 8.39515C136.351 8.39515 137.938 10.1745 137.938 13.7331V31.643C137.938 31.6925 137.949 31.7415 137.97 31.7873C137.991 31.833 138.022 31.8745 138.061 31.9095C138.1 31.9445 138.147 31.9723 138.198 31.9913C138.249 32.0102 138.304 32.0199 138.359 32.0199H142.922C144.619 32.0199 146.248 31.4162 147.448 30.3415C148.649 29.2668 149.324 27.8091 149.324 26.289V13.4316C149.324 9.51472 148.655 6.53616 147.316 4.49591C145.398 1.49971 141.983 0.00106931 137.071 0V0.00481292ZM166.538 0.901429H161.975C160.277 0.901429 158.648 1.50539 157.448 2.58046C156.247 3.65552 155.572 5.11363 155.572 6.634V31.643C155.572 31.6925 155.583 31.7415 155.605 31.7873C155.626 31.833 155.657 31.8745 155.696 31.9095C155.735 31.9445 155.781 31.9723 155.832 31.9913C155.883 32.0102 155.938 32.0199 155.993 32.0199H160.558C161.399 32.0199 162.231 31.8717 163.007 31.5837C163.784 31.2957 164.49 30.8736 165.084 30.3414C165.678 29.8092 166.15 29.1774 166.471 28.4821C166.793 27.7868 166.959 27.0416 166.959 26.289V1.27515C166.958 1.17574 166.913 1.08069 166.834 1.01069C166.755 0.940697 166.649 0.901425 166.538 0.901429Z" fill="white"/>
</mask>
<g mask="url(#mask0_154_70)">
<path d="M166.959 -5.02832H0V38.0782H166.959V-5.02832Z" fill="url(#paint0_linear_154_70)"/>
</g>
<defs>
<linearGradient id="paint0_linear_154_70" x1="0" y1="16.5258" x2="166.959" y2="16.5258" gradientUnits="userSpaceOnUse">
<stop stop-color="#1683EE"/>
<stop offset="0.5" stop-color="#F12F7A"/>
<stop offset="1" stop-color="#F68812"/>
</linearGradient>
</defs>
</svg>
